<svg viewBox="0 0 512.00034 512" xmlns="http://www.w3.org/2000/svg"><path d="m130.140625 367.523438c-3.898437 3.902343-3.898437 10.230468 0 14.140624 3.910156 3.898438 10.242187 3.898438 14.152344 0 3.898437-3.910156 3.898437-10.238281 0-14.140624-3.910157-3.910157-10.242188-3.910157-14.152344 0zm0 0"/><path d="m330.34375 511.949219c5.523438 0 10-4.476563 10-10 0-5.523438-4.476562-10-10-10h-40c-5.519531 0-10 4.476562-10 10 0 5.523437 4.480469 10 10 10zm0 0"/><path d="m409.558594 17.539062c-3.945313 3.945313-331.960938 331.824219-343.054688 342.914063v.003906c-.003906.003907-.007812.007813-.011718.011719-.816407.820312-1.527344 1.871094-1.957032 2.78125l-63.566406 134.40625c-3.128906 6.613281 1.714844 14.292969 9.039062 14.292969h240.339844c5.523438 0 10-4.476563 10-10 0-5.523438-4.476562-10-10-10h-195.96875l94.195313-44.683594c.929687-.4375 1.957031-1.136719 2.765625-1.945313.007812-.007812.015625-.011718.023437-.019531 0 0 .003907-.003906.003907-.003906 13.441406-13.433594 325.777343-325.632813 343.050781-342.898437 23.441406-23.441407 23.445312-61.414063 0-84.863282-23.394531-23.382812-61.460938-23.378906-84.859375.003906zm7.0625 134.34375c-17.589844-17.589843-38.875-38.875-56.574219-56.574218l21.21875-21.210938 56.578125 56.574219zm-327.800782 301.59375-30.4375-30.445312 18.160157-38.394531 50.648437 50.640625zm55.472657-29.382812-56.574219-56.566406 258.183594-258.078125 21.222656 21.222656-208.695312 208.5625c-3.902344 3.902344-3.90625 10.234375-.003907 14.140625 3.902344 3.90625 10.234375 3.910156 14.144531.003906l208.699219-208.5625 21.207031 21.207032zm-94.992188 18.140625 20.335938 20.339844-38.621094 18.320312zm430.976563-353.980469-28.289063 28.277344-56.578125-56.574219 28.289063-28.273437c15.597656-15.59375 40.980469-15.59375 56.574219-.003906 15.628906 15.625 15.632812 40.949218.003906 56.574218zm0 0"/></svg>